<svg width="77" height="44" viewBox="0 0 77 44" fill="none" xmlns="http://www.w3.org/2000/svg">
<g clip-path="url(#clip0_19_15)">
<path d="M2.01432 4.14827C1.17981 4.54493 0.995933 5.29419 0.359441 10.6859C-0.0648875 14.3294 -0.121465 17.5027 0.232142 18.0316C0.571605 18.5311 1.29296 18.7955 2.02846 18.6927C2.36793 18.6339 3.10343 18.678 3.65506 18.7809C6.01715 19.1922 8.09636 18.0757 9.11474 15.8573C9.49664 15.0199 9.55322 14.726 9.55322 13.7123C9.55322 11.6996 8.67627 9.93666 7.30428 9.20209C6.5122 8.76135 5.2675 8.76135 4.36227 9.1874C3.98037 9.3637 3.68334 9.45185 3.68334 9.37839C3.68334 9.29024 3.81064 8.76135 3.95209 8.1737C4.50371 6.02876 4.46128 4.91222 3.82479 4.30987C3.47118 3.97197 2.58009 3.89851 2.01432 4.14827ZM3.17415 6.14629C3.16001 6.67518 3.01856 7.58604 2.83469 8.20308C2.66496 8.80543 2.48108 9.81913 2.43865 10.4655L2.36793 11.6409L3.04685 11.2148C5.28165 9.8632 6.08787 9.67222 7.00725 10.2599C7.72861 10.73 8.37924 12.1404 8.46411 13.4479C8.52069 14.4322 8.4924 14.6085 8.08221 15.4606C7.55887 16.5625 6.85166 17.1795 5.70598 17.5615C5.04119 17.7818 4.80074 17.7818 3.71163 17.6202C3.03271 17.5321 2.21234 17.488 1.88702 17.5468C1.15152 17.6643 0.995933 17.4146 0.995933 16.107C0.995933 14.0943 1.90117 6.41074 2.25477 5.51456C2.38207 5.17666 2.48108 5.1032 2.8064 5.14728C3.17415 5.19135 3.18829 5.20604 3.17415 6.14629Z" fill="#FF006B"/>
<path d="M4.64513 11.582C3.51359 12.3607 2.41034 14.0943 2.41034 15.0933C2.41034 16.0776 3.90963 16.4743 5.18262 15.8278C6.54047 15.152 7.24768 13.7857 6.92236 12.4194C6.61119 11.0531 5.83325 10.774 4.64513 11.582ZM5.86154 12.5517C6.18686 13.4185 5.56451 14.4615 4.44711 14.9023C3.20242 15.4018 3.30143 14.5497 4.68757 13.0512C5.39478 12.2872 5.7201 12.155 5.86154 12.5517Z" fill="#FF006B"/>
<path d="M15.8899 9.87785C15.5928 10.157 14.9422 11.0825 14.4471 11.9346C13.9521 12.8014 13.4853 13.4478 13.4288 13.3891C13.3722 13.3303 13.0893 12.6839 12.8064 11.9787C12.5094 11.2588 12.1133 10.5683 11.9153 10.4067C11.1798 9.7897 10.0058 10.2304 9.83611 11.1854C9.63809 12.2285 10.02 14.0355 10.8404 16.107L11.6466 18.105L11.4203 18.6927C11.293 19.0306 10.9676 19.8533 10.6989 20.5438C10.02 22.2186 9.99169 23.3057 10.5999 23.9375C10.9535 24.3048 11.1232 24.3635 11.7739 24.3635C12.9196 24.3635 13.2449 24.0844 14.2491 22.1451C15.8333 19.0746 17.7852 14.9023 18.3227 13.4185C19.1289 11.1854 19.0016 10.2598 17.8135 9.64279C17.0497 9.23143 16.4981 9.30488 15.8899 9.87785ZM17.6437 10.9356C17.8701 11.3176 17.8701 11.3764 17.474 12.5957C17.1063 13.7123 12.9761 22.483 12.5801 22.9825C12.3255 23.3057 11.6041 23.3939 11.3495 23.1295C11.1374 22.9091 11.1374 22.8209 11.3354 22.0423C11.4627 21.5869 11.8446 20.5291 12.1841 19.6917L12.8064 18.1785L12.4952 17.3411C12.3255 16.8856 11.9295 15.8425 11.6041 15.0345C11.1515 13.9033 10.9959 13.3009 10.9394 12.4195C10.8686 11.4204 10.8828 11.2882 11.0949 11.2882C11.2364 11.2882 11.4203 11.5086 11.5617 11.8318C11.9719 12.8602 13.1176 15.3283 13.3156 15.5928C13.4995 15.8278 13.6268 15.6369 14.7017 13.727C15.3524 12.5517 16.0737 11.3617 16.3 11.0678C16.8092 10.4361 17.2901 10.392 17.6437 10.9356Z" fill="#FF006B"/>
<path d="M19.9775 14.961C18.6904 15.7838 18.9026 17.8112 20.317 18.3254C20.8403 18.5163 20.9393 18.5017 21.4344 18.2519C22.4669 17.723 22.8771 16.6359 22.4245 15.6368C21.986 14.6819 20.8828 14.3881 19.9775 14.961ZM21.2364 15.8425C21.4202 15.9454 21.5051 16.151 21.5051 16.4742C21.5051 17.0325 21.2929 17.3117 20.8686 17.3117C20.2038 17.3117 19.9775 16.342 20.5433 15.9307C20.9252 15.6515 20.8828 15.6515 21.2364 15.8425Z" fill="#FF006B"/>
<path d="M30.3331 9.26361V18.2253H32.3133H34.2935L34.3218 12.7161L34.3642 7.20682L37.7588 12.7161L41.1393 18.2253H43.0912H45.0431V9.26361V0.301886H43.1336H41.2242V5.91398C41.21 10.9825 41.1959 11.5114 40.9978 11.2469C40.8847 11.0853 39.3147 8.55843 37.5042 5.63485L34.2227 0.301886H32.285H30.3331V9.26361Z" fill="#FF006B"/>
<path d="M51.7475 6.98649C48.4519 7.73575 46.4717 10.5124 46.995 13.6857C47.4476 16.4183 49.343 18.1225 52.3698 18.5192C55.3826 18.9159 58.07 17.6083 59.2298 15.1549C59.6541 14.2587 59.6824 14.0824 59.6824 12.7161C59.6824 11.4233 59.64 11.1441 59.3005 10.3949C58.5367 8.70538 56.8819 7.42723 54.8734 6.98649C53.6853 6.72204 52.8932 6.72204 51.7475 6.98649ZM54.7885 10.5418C55.4957 11.1001 55.7928 11.7171 55.7928 12.7161C55.7928 13.7151 55.4957 14.3322 54.7885 14.8904C54.0389 15.4634 52.5961 15.4634 51.8606 14.8904C51.0969 14.3028 50.913 13.8767 50.913 12.7161C50.913 11.5555 51.0969 11.1295 51.8606 10.5418C52.5961 9.96883 54.0389 9.96883 54.7885 10.5418Z" fill="#FF006B"/>
<path d="M61.309 10.4683C61.309 14.1706 61.4505 15.3312 61.9879 16.3743C62.7942 17.9169 64.3076 18.5486 67.1789 18.5486C69.6541 18.5486 70.6867 18.2254 71.7192 17.1382C72.8225 15.9923 72.9073 15.5956 72.9073 10.9972V7.20686H71.1534H69.3995L69.343 10.4683C69.2864 14.0677 69.1732 14.5672 68.3387 15.199C67.8154 15.5956 66.5 15.6103 65.9201 15.2136C65.1563 14.6994 65.0714 14.2146 65.0148 10.5418L64.9582 7.20686H63.1336H61.309V10.4683Z" fill="#FF006B"/>
<path d="M37.1223 34.0186V43.3477H38.9611H40.7998V39.9246C40.7998 36.0901 40.8423 35.9285 41.8606 35.2674C42.8649 34.621 44.0247 34.8854 44.6188 35.8991C44.8734 36.3252 44.9017 36.6631 44.9017 39.8511V43.3477H46.7404H48.5792V39.19C48.5792 35.1499 48.565 35.0323 48.2397 34.2978C47.6457 32.9902 46.2312 32.1088 44.4066 31.9325C43.3316 31.8296 42.3698 32.1235 41.4505 32.858L40.7998 33.3722V29.0236V24.6896H38.9611H37.1223V34.0186Z" fill="#FF006B"/>
<path d="M50.9837 34.0186V43.3477H52.8225H54.6612V41.1146V38.8668L56.8253 41.1146L58.9752 43.3477H61.309H63.6428L60.913 40.5122C59.4278 38.9549 58.1973 37.618 58.1973 37.5446C58.1973 37.4711 59.3288 36.2223 60.7008 34.7973L63.2185 32.1822H60.814H58.4094L56.5424 34.1215L54.6612 36.0754V30.3752V24.6896H52.8225H50.9837V34.0186Z" fill="#FF006B"/>
<path d="M30.4745 32.0793C28.1973 32.7551 26.5 34.6062 26.0898 36.8834C25.6372 39.3221 26.9243 41.7903 29.3006 43.0097C30.2482 43.4945 30.517 43.5679 31.6626 43.612C32.9781 43.6708 34.3076 43.421 35.1704 42.9656L35.5665 42.7599L34.93 41.4377L34.2935 40.1301L33.7136 40.3358C32.384 40.8206 31.0686 40.4534 30.3897 39.3809C29.4986 37.9999 29.9795 36.0606 31.3798 35.3114C31.9455 35.0029 33.2609 35.0029 33.8409 35.3114L34.2935 35.5464L34.93 34.2389L35.5523 32.9461L35.2411 32.7404C34.2369 32.0646 31.7051 31.712 30.4745 32.0793Z" fill="#FF006B"/>
<path d="M67.773 32.0499C66.9384 32.2556 66.1322 32.7404 65.425 33.4897C63.1761 35.8109 63.2326 39.9245 65.5382 42.2164C66.6697 43.3329 67.6174 43.6855 69.3005 43.612C70.6584 43.5386 71.2949 43.3035 72.186 42.5396L72.6244 42.1429V42.7453V43.3476H74.4632H76.302V37.7649V32.1822H74.4632H72.6244V32.6817V33.1959L71.8324 32.6964C70.6442 31.9471 69.1591 31.712 67.773 32.0499ZM71.5778 35.5612C72.8508 36.3839 73.0912 38.3525 72.0587 39.5866C71.4929 40.2477 70.9554 40.4534 69.9653 40.3799C68.9611 40.3065 68.3104 39.8804 67.9427 39.0283C67.4759 37.9559 67.7164 36.5161 68.4943 35.8109C69.2723 35.0911 70.6584 34.9882 71.5778 35.5612Z" fill="#FF006B"/>
</g>
<defs>
<clipPath id="clip0_19_15">
<rect width="76.302" height="43.3194" fill="white" transform="matrix(1 0 0 -1 0 43.6213)"/>
</clipPath>
</defs>
</svg>
