<svg width="321" height="61" viewBox="0 0 321 61" fill="none" xmlns="http://www.w3.org/2000/svg">
<path d="M58 26.9459V51.8615H63.4924H68.9848L69.0632 36.5445L69.1809 21.2276L78.5964 36.5445L87.9727 51.8615H93.3866H98.8006V26.9459V2.03033H93.5043H88.2081V17.6332C88.1689 31.7248 88.1296 33.1952 87.5804 32.46C87.2666 32.0107 82.9119 24.9853 77.8903 16.8571L68.7886 2.03033H63.4139H58V26.9459Z" fill="#FFF9FD"/>
<path d="M117.396 20.6149C108.255 22.698 102.763 30.4178 104.215 39.2403C105.47 46.8375 110.727 51.5756 119.122 52.6784C127.479 53.7812 134.933 50.146 138.15 43.3248C139.327 40.8333 139.405 40.3431 139.405 36.5445C139.405 32.9502 139.287 32.1741 138.346 30.091C136.227 25.3938 131.637 21.8403 126.066 20.6149C122.771 19.8797 120.574 19.8797 117.396 20.6149ZM125.831 30.4994C127.793 32.0516 128.616 33.7671 128.616 36.5445C128.616 39.322 127.793 41.0375 125.831 42.5896C123.752 44.1826 119.75 44.1826 117.71 42.5896C115.592 40.9558 115.082 39.7713 115.082 36.5445C115.082 33.3178 115.592 32.1332 117.71 30.4994C119.75 28.9065 123.752 28.9065 125.831 30.4994Z" fill="#FFF9FD"/>
<path d="M143.917 30.2953C143.917 40.5883 144.309 43.815 145.8 46.715C148.036 51.0038 152.234 52.7601 160.198 52.7601C167.063 52.7601 169.927 51.8615 172.791 48.839C175.851 45.6531 176.086 44.5503 176.086 31.7657V21.2277H171.222H166.357L166.2 30.2953C166.043 40.3024 165.729 41.6911 163.415 43.4474C161.963 44.5503 158.314 44.5911 156.706 43.4883C154.587 42.0587 154.352 40.7108 154.195 30.4995L154.038 21.2277H148.977H143.917V30.2953Z" fill="#FFF9FD"/>
<path d="M209.351 25.9367V51.8734H214.451H219.551V42.3565C219.551 31.6959 219.669 31.2466 222.494 29.4086C225.279 27.6114 228.496 28.3466 230.144 31.1649C230.85 32.3494 230.928 33.2889 230.928 42.1523V51.8734H236.028H241.129V40.3142C241.129 29.0818 241.089 28.755 240.187 26.7128C238.539 23.0776 234.616 20.6268 229.555 20.1367C226.574 19.8508 223.906 20.6677 221.356 22.71L219.551 24.1395V12.0494V3.22089e-05H214.451H209.351V25.9367Z" fill="#FFF9FD"/>
<path d="M249.798 25.9367V51.8734H254.898H259.998V45.6649V39.4156L266 45.6649L271.964 51.8734H278.437H284.91L277.338 43.9903C273.219 39.6607 269.806 35.9438 269.806 35.7396C269.806 35.5353 272.944 32.0635 276.75 28.1015L283.733 20.8311H277.064H270.394L265.216 26.2226L259.998 31.655V15.8071V3.22089e-05H254.898H249.798V25.9367Z" fill="#FFF9FD"/>
<path d="M192.912 20.5451C186.596 22.424 181.888 27.5705 180.751 33.9015C179.495 40.6818 183.065 47.5438 189.656 50.934C192.285 52.2818 193.03 52.4861 196.208 52.6086C199.856 52.772 203.544 52.0776 205.937 50.8114L207.036 50.2396L205.27 46.5635L203.505 42.9283L201.896 43.5001C198.209 44.848 194.56 43.8269 192.677 40.8452C190.206 37.0057 191.539 31.6142 195.423 29.5311C196.993 28.6733 200.641 28.6733 202.25 29.5311L203.505 30.1846L205.27 26.5494L206.997 22.955L206.133 22.3832C203.348 20.5043 196.326 19.524 192.912 20.5451Z" fill="#FFF9FD"/>
<path d="M296.365 20.4634C294.051 21.0352 291.815 22.3831 289.853 24.4662C283.615 30.9198 283.772 42.3564 290.167 48.7283C293.305 51.8325 295.934 52.8128 300.602 52.6086C304.369 52.4043 306.134 51.7508 308.606 49.6269L309.822 48.524V50.1987V51.8734H314.922H320.022V36.3522V20.831H314.922H309.822V22.2197V23.6493L307.625 22.2606C304.329 20.1775 300.21 19.524 296.365 20.4634ZM306.919 30.2254C310.45 32.5127 311.116 37.986 308.253 41.417C306.683 43.255 305.193 43.8268 302.446 43.6226C299.661 43.4184 297.856 42.2339 296.836 39.8649C295.542 36.8832 296.209 32.8803 298.366 30.9198C300.524 28.9184 304.369 28.6324 306.919 30.2254Z" fill="#FFF9FD"/>
<path d="M3.92044 20.5922C2.29624 21.3661 1.93837 22.8278 0.699574 33.3465C-0.12629 40.4545 -0.236405 46.6453 0.451815 47.6771C1.11251 48.6516 2.51647 49.1675 3.94797 48.9669C4.60866 48.8522 6.04016 48.9382 7.11378 49.1388C11.7111 49.9414 15.7578 47.7631 17.7399 43.4353C18.4832 41.8016 18.5933 41.2283 18.5933 39.2507C18.5933 35.3241 16.8865 31.8848 14.2162 30.4517C12.6746 29.5919 10.2521 29.5919 8.49022 30.423C7.74695 30.767 7.16884 30.9389 7.16884 30.7956C7.16884 30.6237 7.4166 29.5919 7.69189 28.4454C8.76551 24.2609 8.68293 22.0826 7.44413 20.9075C6.75591 20.2483 5.0216 20.105 3.92044 20.5922ZM6.1778 24.4902C6.15028 25.522 5.87499 27.299 5.51711 28.5027C5.18677 29.6778 4.82889 31.6555 4.74631 32.9166L4.60866 35.2095L5.93005 34.3783C10.2796 31.7415 11.8487 31.3689 13.6381 32.5153C15.0421 33.4325 16.3084 36.184 16.4736 38.7348C16.5837 40.6551 16.5286 40.999 15.7303 42.6614C14.7117 44.811 13.3353 46.0148 11.1055 46.76C9.81161 47.1899 9.34362 47.1899 7.2239 46.8746C5.90252 46.7026 4.30585 46.6167 3.67268 46.7313C2.24119 46.9606 1.93837 46.4733 1.93837 43.9225C1.93837 39.9959 3.70021 25.0061 4.38843 23.2577C4.63619 22.5985 4.82889 22.4552 5.46206 22.5412C6.1778 22.6272 6.20533 22.6558 6.1778 24.4902Z" fill="#FFF9FD"/>
<path d="M9.04077 35.0947C6.83847 36.6138 4.69122 39.9958 4.69122 41.9448C4.69122 43.8651 7.60928 44.6389 10.0869 43.3778C12.7296 42.0594 14.1061 39.3939 13.4729 36.7284C12.8673 34.0629 11.3532 33.5184 9.04077 35.0947ZM11.4082 36.9864C12.0414 38.6774 10.8301 40.7123 8.65537 41.5722C6.23284 42.5467 6.42554 40.8843 9.12336 37.9609C10.4998 36.4705 11.133 36.2125 11.4082 36.9864Z" fill="#FFF9FD"/>
<path d="M30.9261 31.77C30.348 32.3146 29.0817 34.1202 28.1182 35.7826C27.1547 37.4736 26.2462 38.7347 26.1361 38.6201C26.026 38.5054 25.4754 37.2443 24.9249 35.8686C24.3468 34.4642 23.576 33.1171 23.1905 32.8018C21.7591 31.5981 19.4742 32.4579 19.1438 34.3209C18.7584 36.3558 19.5017 39.8812 21.0984 43.9224L22.6675 47.8203L22.227 48.9668C21.9793 49.626 21.3461 51.231 20.8231 52.5781C19.5017 55.8455 19.4466 57.9664 20.6304 59.1989C21.3186 59.9154 21.6489 60.03 22.9153 60.03C25.1451 60.03 25.7783 59.4855 27.7328 55.7022C30.816 49.712 34.615 41.5722 35.6611 38.6774C37.2302 34.3209 36.9825 32.5152 34.6701 31.3114C33.1835 30.5089 32.1099 30.6522 30.9261 31.77ZM34.3397 33.8336C34.7802 34.5788 34.7802 34.6935 34.0094 37.0724C33.2936 39.2506 25.2552 56.3614 24.4844 57.3359C23.9889 57.9664 22.5849 58.1384 22.0894 57.6225C21.6765 57.1926 21.6765 57.0206 22.0619 55.5016C22.3096 54.6131 23.0529 52.5494 23.7136 50.9157L24.9249 47.9636L24.3192 46.3299C23.9889 45.4414 23.2181 43.4065 22.5849 41.8301C21.704 39.6232 21.4012 38.4481 21.2911 36.7284C21.1534 34.7795 21.1809 34.5215 21.5939 34.5215C21.8692 34.5215 22.227 34.9514 22.5023 35.582C23.3007 37.5883 25.5305 42.4034 25.9159 42.9193C26.2738 43.3778 26.5215 43.0052 28.6137 39.2793C29.88 36.9864 31.284 34.6648 31.7245 34.0916C32.7155 32.8592 33.6515 32.7732 34.3397 33.8336Z" fill="#FFF9FD"/>
<path d="M38.6619 45.2359C36.1568 46.8409 36.5697 50.7962 39.3226 51.7993C40.3411 52.1719 40.5338 52.1433 41.4973 51.656C43.5069 50.6242 44.3053 48.5033 43.4244 46.5543C42.571 44.6913 40.4237 44.1181 38.6619 45.2359ZM41.1119 46.9556C41.4698 47.1562 41.635 47.5575 41.635 48.188C41.635 49.2771 41.2221 49.8217 40.3962 49.8217C39.1023 49.8217 38.6619 47.9301 39.763 47.1275C40.5063 46.583 40.4237 46.583 41.1119 46.9556Z" fill="#FFF9FD"/>
</svg>
