<svg width="115" height="115" viewBox="0 0 115 115" fill="none" xmlns="http://www.w3.org/2000/svg">
<g clip-path="url(#clip0_18_8)">
<path d="M112.029 42.4206C109.753 39.8235 106.471 38.3333 103.021 38.3333H100.309C97.9079 16.6702 79.5558 0 57.4998 0C35.4437 0 17.0916 16.6702 14.691 38.3333H11.9789C8.52892 38.3333 5.24663 39.8235 2.97059 42.4206C0.694544 45.0177 -0.35004 48.4725 0.100377 51.8985L5.46704 92.1294C7.20642 105.168 18.4381 114.995 31.5912 114.995H83.3987C96.5518 114.995 107.784 105.163 109.518 92.1294L114.89 51.8938C115.345 48.4725 114.295 45.0129 112.019 42.4158L112.029 42.4206ZM57.4998 4.79167C76.9252 4.79167 93.121 19.3344 95.4977 38.3333H19.5018C21.8737 19.3344 38.0743 4.79167 57.4998 4.79167ZM110.141 51.2613L104.774 91.4921C103.356 102.163 94.1656 110.204 83.4035 110.204H31.596C20.8339 110.204 11.6435 102.158 10.2204 91.4921L4.8585 51.266C4.58059 49.2056 5.20829 47.1356 6.57392 45.5735C7.93954 44.0115 9.90892 43.1202 11.9789 43.1202H103.021C105.091 43.1202 107.06 44.0163 108.426 45.5735C109.791 47.1308 110.419 49.2056 110.141 51.2613ZM59.8956 59.8958V93.4375C59.8956 94.76 58.8223 95.8333 57.4998 95.8333C56.1773 95.8333 55.1039 94.76 55.1039 93.4375V59.8958C55.1039 58.5733 56.1773 57.5 57.4998 57.5C58.8223 57.5 59.8956 58.5733 59.8956 59.8958ZM86.2498 59.8958V93.4375C86.2498 94.76 85.1764 95.8333 83.8539 95.8333C82.5314 95.8333 81.4581 94.76 81.4581 93.4375V59.8958C81.4581 58.5733 82.5314 57.5 83.8539 57.5C85.1764 57.5 86.2498 58.5733 86.2498 59.8958ZM33.5414 59.8958V93.4375C33.5414 94.76 32.4681 95.8333 31.1456 95.8333C29.8231 95.8333 28.7498 94.76 28.7498 93.4375V59.8958C28.7498 58.5733 29.8231 57.5 31.1456 57.5C32.4681 57.5 33.5414 58.5733 33.5414 59.8958Z" fill="#FF006B"/>
</g>
<defs>
<clipPath id="clip0_18_8">
<rect width="115" height="115" fill="white"/>
</clipPath>
</defs>
</svg>
