<?xml version="1.0" standalone="no"?>
<!DOCTYPE svg PUBLIC "-//W3C//DTD SVG 20010904//EN"
 "http://www.w3.org/TR/2001/REC-SVG-20010904/DTD/svg10.dtd">
<svg version="1.0" xmlns="http://www.w3.org/2000/svg"
 width="64.000000pt" height="64.000000pt" viewBox="0 0 64.000000 64.000000"
 preserveAspectRatio="xMidYMid meet">
<metadata>
Created by potrace 1.10, written by Peter Selinger 2001-2011
</metadata>
<g transform="translate(0.000000,64.000000) scale(0.100000,-0.100000)"
fill="#ff006b" stroke="none">
<path d="M218 629 c-12 -6 -18 -22 -18 -44 0 -33 0 -33 -39 -28 -22 3 -51 3
-65 -1 -24 -6 -26 -11 -26 -56 0 -43 3 -50 23 -55 l22 -6 -3 -203 c-3 -177 -1
-206 13 -220 24 -24 366 -24 390 0 14 14 16 43 13 220 l-3 203 23 6 c19 5 22
12 22 55 0 45 -2 50 -26 56 -14 4 -43 4 -65 1 -39 -5 -39 -5 -39 29 0 23 -6
37 -19 44 -25 13 -181 13 -203 -1z m187 -48 c0 -24 -2 -25 -84 -25 -85 -1
-100 6 -87 39 5 13 21 15 88 13 80 -3 83 -4 83 -27z m135 -81 c0 -19 -7 -20
-220 -20 -213 0 -220 1 -220 20 0 19 7 20 220 20 213 0 220 -1 220 -20z m-50
-262 l0 -208 -170 0 -170 0 0 208 0 207 170 0 170 0 0 -207z"/>
<path d="M207 384 c-10 -11 -8 -292 2 -298 24 -15 31 26 29 160 -3 128 -10
159 -31 138z"/>
<path d="M305 378 c-3 -8 -4 -77 -3 -153 3 -117 6 -140 18 -140 13 0 15 23 15
149 0 111 -3 150 -12 153 -7 3 -15 -2 -18 -9z"/>
<path d="M407 384 c-4 -4 -7 -69 -7 -144 0 -110 3 -140 15 -150 23 -19 26 1
23 155 -3 129 -10 160 -31 139z"/>
</g>
</svg>
